<?xml version="1.0" encoding="utf-8"?>
<!-- Generator: Adobe Illustrator 21.0.2, SVG Export Plug-In . SVG Version: 6.00 Build 0)  -->
<svg version="1.1" xmlns="http://www.w3.org/2000/svg" xmlns:xlink="http://www.w3.org/1999/xlink" x="0px" y="0px"
	 viewBox="0 0 488 489" style="enable-background:new 0 0 488 489;" xml:space="preserve">
<style type="text/css">
	.st0{fill:none;stroke:#5C5C5C;stroke-width:1.5896;stroke-linecap:round;stroke-linejoin:round;}
	.st1{fill:none;stroke:#808080;stroke-width:3.997;stroke-linejoin:round;}
	.st2{fill:none;stroke:#339900;stroke-width:3.1792;stroke-linecap:round;stroke-linejoin:round;}
	.st3{fill:none;stroke:#660099;stroke-width:3.1792;stroke-linecap:round;stroke-linejoin:round;}
	.st4{fill:none;stroke:#FFCC00;stroke-width:3.1792;stroke-linecap:round;stroke-linejoin:round;}
	.st5{fill:none;stroke:#0033FF;stroke-width:3.1792;stroke-linecap:round;stroke-linejoin:round;}
	.st6{fill:none;stroke:#CC0000;stroke-width:3.1792;stroke-linecap:round;stroke-linejoin:round;}
	.st7{fill:none;stroke:#00CCCC;stroke-width:3.1792;stroke-linecap:round;stroke-linejoin:round;}
	.st8{fill:none;stroke:#660000;stroke-width:3.1792;stroke-linecap:round;stroke-linejoin:round;}
	.st9{fill:none;stroke:#66FF33;stroke-width:3.1792;stroke-linecap:round;stroke-linejoin:round;}
	.st10{fill:none;stroke:#3300CC;stroke-width:3.1792;stroke-linecap:round;stroke-linejoin:round;}
	.st11{fill:none;stroke:#FF6600;stroke-width:3.1792;stroke-linecap:round;stroke-linejoin:round;}
	.st12{fill:none;stroke:#3399CC;stroke-width:3.1792;stroke-linecap:round;stroke-linejoin:round;}
	.st13{opacity:0.8;}
	.st14{fill:none;stroke:#990000;stroke-width:3.1792;stroke-linecap:round;stroke-linejoin:round;}
	.st15{fill:#66FF33;stroke:#231F20;stroke-width:1.9985;}
	.st16{fill:#FFCC00;stroke:#231F20;stroke-width:1.9985;}
	.st17{fill:#FF6600;stroke:#231F20;stroke-width:1.9985;}
	.st18{fill:#CC0000;stroke:#231F20;stroke-width:1.9985;}
	.st19{fill:#990000;stroke:#231F20;stroke-width:1.9985;}
	.st20{fill:#800000;stroke:#231F20;stroke-width:1.9985;}
	.st21{fill:#660099;stroke:#231F20;stroke-width:1.9985;}
	.st22{fill:#3300CC;stroke:#231F20;stroke-width:1.9985;}
	.st23{fill:#0033FF;stroke:#231F20;stroke-width:1.9985;}
	.st24{fill:#3399FF;stroke:#231F20;stroke-width:1.9985;}
	.st25{fill:#00CCCC;stroke:#231F20;stroke-width:1.9985;}
	.st26{fill:#339900;stroke:#231F20;stroke-width:1.9985;}
	.st27{fill:#66FF33;stroke:#6D6E71;stroke-width:0.7994;}
	.st28{fill:#CCCC66;stroke:#6D6E71;stroke-width:0.7994;}
	.st29{fill:#FF9900;stroke:#6D6E71;stroke-width:0.7994;}
	.st30{fill:#CC3300;stroke:#6D6E71;stroke-width:0.7994;}
	.st31{fill:#990000;stroke:#6D6E71;stroke-width:0.7994;}
	.st32{fill:#990033;stroke:#6D6E71;stroke-width:0.7994;}
	.st33{fill:#660033;stroke:#6D6E71;stroke-width:0.7994;}
	.st34{fill:#6633FF;stroke:#6D6E71;stroke-width:0.7994;}
	.st35{fill:#0000FF;stroke:#6D6E71;stroke-width:0.7994;}
	.st36{fill:#3366FF;stroke:#6D6E71;stroke-width:0.7994;}
	.st37{fill:#0099CC;stroke:#6D6E71;stroke-width:0.7994;}
	.st38{fill:#339999;stroke:#6D6E71;stroke-width:0.7994;}
	.st39{opacity:0.9;}
	.st40{fill:url(#SVGID_1_);stroke:#231F20;stroke-width:1.9484;}
</style>
<g id="Layer_1">
</g>
<g id="Layer_2">
</g>
<g id="Dodecagram_1_">
	<g>
		<circle class="st0" cx="243.5" cy="244.5" r="215.3"/>
		<polygon class="st0" points="243.5,29.2 135.8,430.9 429.8,136.8 28.2,244.5 429.8,352.1 135.8,58 243.5,459.8 351.1,58.1 
			57.1,352.1 458.7,244.4 57.2,136.8 351.1,430.9 		"/>
		<polygon class="st0" points="243.5,459.8 135.8,430.9 57.1,352.1 28.2,244.5 57.2,136.8 135.8,58 243.5,29.2 351.1,58.1 
			429.8,136.8 458.7,244.4 429.8,352.1 351.1,430.9 		"/>
		<line class="st0" x1="243.5" y1="29.2" x2="243.5" y2="459.8"/>
		<line class="st0" x1="135.8" y1="58" x2="351.1" y2="430.9"/>
		<line class="st0" x1="57" y1="136.8" x2="429.9" y2="352.1"/>
		<line class="st0" x1="351.1" y1="58" x2="135.8" y2="430.9"/>
		<line class="st0" x1="429.9" y1="136.8" x2="57" y2="352.1"/>
		<line class="st0" x1="28.1" y1="244.5" x2="458.8" y2="244.5"/>
		
			<rect x="91.2" y="92.2" transform="matrix(0.707 -0.7072 0.7072 0.707 -101.5508 243.7933)" class="st0" width="304.5" height="304.4"/>
		<polygon class="st0" points="351.1,58.1 429.8,352.1 135.8,430.9 57.2,136.8 		"/>
		<polygon class="st0" points="429.8,136.8 351.1,430.9 57.1,352.1 135.8,58 		"/>
		<polygon class="st0" points="57.2,136.8 57.1,352.1 429.8,352.1 429.8,136.8 		"/>
		<polygon class="st0" points="351.1,430.9 351.1,58.1 135.8,58 135.8,430.9 		"/>
		<polygon class="st0" points="458.7,244.4 135.8,58 28.2,244.5 351.1,430.9 		"/>
		<polygon class="st0" points="135.8,430.9 458.7,244.4 351.1,58.1 28.2,244.5 		"/>
		<polygon class="st0" points="429.8,352.1 243.5,29.2 57.2,136.8 243.5,459.8 		"/>
		<polygon class="st0" points="243.5,459.8 429.8,136.8 243.5,29.2 57.1,352.1 		"/>
	</g>
</g>
<g id="Circle_1_">
	<circle class="st1" cx="243.5" cy="244.5" r="215.3"/>
</g>
<g id="Circle_of_Fifths_1_">
	<g id="_x35_-0">
		<line class="st2" x1="350.6" y1="430.4" x2="243.4" y2="30.2"/>
	</g>
	<g id="_x31_0-5">
		<line class="st3" x1="57.7" y1="137.4" x2="350.6" y2="430.4"/>
	</g>
	<g id="_x33_-10">
		<line class="st4" x1="457.8" y1="244.7" x2="57.7" y2="137.4"/>
	</g>
	<g id="_x38_-3">
		<line class="st5" x1="57.7" y1="351.9" x2="457.8" y2="244.7"/>
	</g>
	<g id="_x31_-8">
		<line class="st6" x1="350.6" y1="58.9" x2="57.7" y2="351.9"/>
	</g>
	<g id="_x36_-1">
		<line class="st7" x1="243.4" y1="459.1" x2="350.6" y2="58.9"/>
	</g>
	<g id="_x31_1-6">
		<line class="st8" x1="136.2" y1="58.9" x2="243.4" y2="459.1"/>
	</g>
	<g id="_x34_-11">
		<line class="st9" x1="429.1" y1="351.9" x2="136.2" y2="58.9"/>
	</g>
	<g id="_x39_-4">
		<line class="st10" x1="29" y1="244.7" x2="429.1" y2="351.9"/>
	</g>
	<g id="_x32_-9">
		<line class="st11" x1="429.1" y1="137.4" x2="29" y2="244.7"/>
	</g>
	<g id="_x37_-2">
		<line id="Dodecagram_2_" class="st12" x1="136.2" y1="430.3" x2="429" y2="137.4"/>
	</g>
	<g id="_x30_-7" class="st13">
		<line class="st14" x1="243.4" y1="30.2" x2="136.2" y2="430.3"/>
	</g>
</g>
<g id="Notes_1_">
	<path class="st15" d="M153.4,47.8c5.6,9.7,2.3,22.2-7.4,27.8c-9.7,5.6-22.2,2.3-27.8-7.5c-5.6-9.7-2.3-22.2,7.5-27.8
		C135.4,34.7,147.8,38.1,153.4,47.8z"/>
	<path class="st16" d="M67.2,119.2c9.7,5.6,13.1,18.1,7.5,27.8c-5.6,9.7-18.1,13.1-27.8,7.5c-9.7-5.6-13.1-18.1-7.5-27.8
		C45,116.9,57.4,113.5,67.2,119.2z"/>
	<path class="st17" d="M29,224.1c11.3,0,20.4,9.1,20.4,20.4c0,11.2-9.1,20.4-20.4,20.4c-11.3,0-20.4-9.1-20.4-20.4
		C8.6,233.2,17.7,224.1,29,224.1z"/>
	<path class="st18" d="M46.8,334.5c9.7-5.6,22.2-2.3,27.8,7.5c5.6,9.7,2.3,22.2-7.4,27.8c-9.7,5.6-22.2,2.3-27.8-7.5
		C33.7,352.5,37.1,340.1,46.8,334.5z"/>
	<path class="st19" d="M118.2,420.7c5.6-9.7,18.1-13.1,27.8-7.4c9.7,5.6,13.1,18.1,7.5,27.8c-5.6,9.7-18.1,13.1-27.8,7.5
		C115.9,442.9,112.5,430.5,118.2,420.7z"/>
	<path class="st20" d="M223.1,459.8c0-11.2,9.1-20.4,20.4-20.4c11.2,0,20.4,9.1,20.4,20.4c0,11.3-9.1,20.4-20.4,20.4
		C232.2,480.1,223.1,471,223.1,459.8z"/>
	<path class="st21" d="M333.5,441.1c-5.6-9.7-2.3-22.2,7.5-27.8c9.7-5.6,22.2-2.3,27.8,7.4c5.6,9.7,2.3,22.2-7.5,27.8
		C351.5,454.2,339.1,450.9,333.5,441.1z"/>
	<path class="st22" d="M419.7,369.7c-9.7-5.6-13.1-18.1-7.4-27.8c5.6-9.7,18.1-13.1,27.8-7.5c9.8,5.6,13.1,18.1,7.5,27.8
		C441.9,372,429.5,375.4,419.7,369.7z"/>
	<path class="st23" d="M458.7,264.8c-11.3,0-20.4-9.1-20.4-20.4c0-11.2,9.1-20.4,20.4-20.4c11.3,0,20.4,9.1,20.4,20.4
		C479.1,255.7,470,264.8,458.7,264.8z"/>
	<path class="st24" d="M440.1,154.5c-9.8,5.6-22.2,2.3-27.8-7.5c-5.6-9.7-2.3-22.2,7.4-27.8c9.7-5.6,22.2-2.3,27.8,7.5
		C453.2,136.4,449.8,148.8,440.1,154.5z"/>
	<path class="st25" d="M368.7,68.2c-5.6,9.7-18.1,13.1-27.8,7.4c-9.7-5.6-13.1-18.1-7.5-27.8c5.6-9.8,18.1-13.1,27.8-7.5
		C371,46,374.4,58.4,368.7,68.2z"/>
	<circle class="st26" cx="243.5" cy="29.2" r="20.4"/>
</g>
<g id="Intermediates_1_">
	<ellipse transform="matrix(0.9659 -0.2588 0.2588 0.9659 -3.0485 49.8301)" class="st27" cx="187.7" cy="36.5" rx="4.9" ry="4.9"/>
	<ellipse transform="matrix(0.7071 -0.7071 0.7071 0.7071 -38.4923 91.5101)" class="st28" cx="91.2" cy="92.2" rx="4.9" ry="4.9"/>
	
		<ellipse transform="matrix(0.2588 -0.9659 0.9659 0.2588 -156.0034 174.1602)" class="st29" cx="35.5" cy="188.7" rx="4.9" ry="4.9"/>
	<ellipse transform="matrix(0.966 -0.2587 0.2587 0.966 -76.455 19.4004)" class="st30" cx="35.5" cy="300.2" rx="4.9" ry="4.9"/>
	
		<ellipse transform="matrix(0.7072 -0.707 0.707 0.7072 -253.7742 180.6492)" class="st31" cx="91.2" cy="396.7" rx="4.9" ry="4.9"/>
	<path class="st32" d="M183,451.2c0.7-2.6,3.4-4.2,6-3.5c2.6,0.7,4.2,3.4,3.5,6c-0.7,2.6-3.4,4.2-6,3.5
		C183.9,456.4,182.3,453.8,183,451.2z"/>
	<path class="st33" d="M294.5,453.7c-0.7-2.6,0.8-5.3,3.5-6c2.6-0.7,5.3,0.8,6,3.5c0.7,2.6-0.9,5.3-3.5,6
		C297.8,457.8,295.2,456.3,294.5,453.7z"/>
	<path class="st34" d="M392.2,400.2c-1.9-1.9-1.9-5,0-6.9c1.9-1.9,5-1.9,6.9,0c1.9,1.9,1.9,5,0,6.9
		C397.2,402.1,394.1,402.1,392.2,400.2z"/>
	<path class="st35" d="M450.2,304.9c-2.6-0.7-4.2-3.4-3.5-6c0.7-2.6,3.4-4.2,6-3.5c2.6,0.7,4.2,3.4,3.5,6
		C455.4,304.1,452.8,305.6,450.2,304.9z"/>
	<path class="st36" d="M452.7,193.5c-2.6,0.7-5.3-0.8-6-3.5c-0.7-2.6,0.8-5.3,3.5-6c2.6-0.7,5.3,0.8,6,3.5
		C456.8,190.1,455.3,192.8,452.7,193.5z"/>
	<path class="st37" d="M399.2,95.7c-1.9,1.9-5,1.9-6.9,0c-1.9-1.9-1.9-5,0-6.9c1.9-1.9,5-1.9,6.9,0
		C401.1,90.7,401.1,93.8,399.2,95.7z"/>
	
		<ellipse transform="matrix(0.2588 -0.9659 0.9659 0.2588 186.4938 316.0288)" class="st38" cx="299.2" cy="36.5" rx="4.9" ry="4.9"/>
</g>
<g id="Music_1_">
	<g class="st39">
		<linearGradient id="SVGID_1_" gradientUnits="userSpaceOnUse" x1="229.7905" y1="421.8004" x2="229.7905" y2="58.362">
			<stop  offset="0" style="stop-color:#00A8DE"/>
			<stop  offset="0.2" style="stop-color:#333391"/>
			<stop  offset="0.4" style="stop-color:#E91388"/>
			<stop  offset="0.6" style="stop-color:#EB2D2E"/>
			<stop  offset="0.8" style="stop-color:#FDE92B"/>
			<stop  offset="1" style="stop-color:#009E54"/>
		</linearGradient>
		<path class="st40" d="M238.4,344.7c-41,0-78.6-30.3-78.6-66.9c0-31.1,22-65.1,66.1-102c-2.7-11.2-4.3-23-4.3-35.2
			c0-34.2,11.4-66.3,31.3-82.3c17.6,24.3,26.3,47.5,26.3,69.4c0,28.4-13.1,54.3-41.9,78.6l8.5,40.8c4.6-0.4,7.3-0.6,7.7-0.6
			c25.7,0,46.4,19.7,46.4,45.4c0,18.7-14.1,36.5-34.8,46.6c-0.2-1.4,8.3,36.9,8.3,42.3c0,24.2-22,41-47.9,41
			c-19.3,0-35.4-12.9-35.4-32.7c0-14.1,9.7-24.9,23.8-24.9c12.4,0,22,12.4,22,24.2c0,13.3-11.2,22.4-26.1,24
			c5.8,2.9,12,4.4,18.4,4.4c20.9,0,40.2-15.8,40.2-34.8c0-1.9-0.2-3.9-0.6-6l-7.3-35.7C254.2,343.4,247.5,344.7,238.4,344.7z
			 M216.9,293.9c0,9.9,5.2,18.2,15.8,24.7c-17.4-2.7-29-14.1-29-30.3c0-19.1,17-36.1,37.1-40.4l-8.1-38.6
			c-36.1,27.1-55.3,53.5-55.3,79.2c0,28.4,27.1,51.8,58.4,51.8c9.1,0,16.6-1.5,23.4-5.2l-13.9-66.5
			C229.3,270.7,216.9,280.6,216.9,293.9z M256.4,86c-16,0-28,35.7-28,68.2c0,6.8,0.4,12.9,1.7,18.5c26.1-23.2,39.4-44.2,39.4-63
			c0-9.1-3.3-16.8-9.7-23.4C258.9,86.2,257.7,86,256.4,86z M283.2,299.1c0-16-11.6-31.7-28.2-31.7c-0.6,0-2.1,0.2-4.8,0.4l13.7,64.5
			C276.5,323.1,283.2,311.9,283.2,299.1z"/>
	</g>
</g>
</svg>
